{"asset":{"version":"2.0","generator":"labhq generate_placeholder.py","copyright":"CC0-1.0; generated for this repository"},"scene":0,"scenes":[{"nodes":[0]}],"nodes":[{"name":"paper_robot","children":[1,2,3,4]},{"mesh":0},{"name":"anchor_head","mesh":1,"translation":[0,1.5,0]},{"name":"anchor_hand_l","mesh":2,"translation":[-0.44,1.14,0]},{"name":"anchor_hand_r","mesh":2,"translation":[0.44,1.14,0]}],"materials":[{"name":"matte_paper","pbrMetallicRoughness":{"metallicFactor":0,"roughnessFactor":0.93}}],"meshes":[{"primitives":[{"attributes":{"POSITION":0,"NORMAL":1,"COLOR_0":2},"material":0}]},{"primitives":[{"attributes":{"POSITION":3,"NORMAL":4,"COLOR_0":5},"material":0}]},{"primitives":[{"attributes":{"POSITION":6,"NORMAL":7,"COLOR_0":8},"material":0}]}],"animations":[{"name":"working","samplers":[{"input":9,"output":10,"interpolation":"LINEAR"}],"channels":[{"sampler":0,"target":{"node":3,"path":"rotation"}}]}],"buffers":[{"byteLength":14316,"uri":"data:application/octet-stream;base64,"}],"bufferViews":[{"buffer":0,"byteOffset":0,"byteLength":1728},{"buffer":0,"byteOffset":1728,"byteLength":1728},{"buffer":0,"byteOffset":3456,"byteLength":1728},{"buffer":0,"byteOffset":5184,"byteLength":2160},{"buffer":0,"byteOffset":7344,"byteLength":2160},{"buffer":0,"byteOffset":9504,"byteLength":2160},{"buffer":0,"byteOffset":11664,"byteLength":864},{"buffer":0,"byteOffset":12528,"byteLength":864},{"buffer":0,"byteOffset":13392,"byteLength":864},{"buffer":0,"byteOffset":14256,"byteLength":12},{"buffer":0,"byteOffset":14268,"byteLength":48}],"accessors":[{"bufferView":0,"componentType":5126,"count":144,"type":"VEC3","min":[-0.32,0.0,-0.22],"max":[0.32,1.2,0.2525]},{"bufferView":1,"componentType":5126,"count":144,"type":"VEC3"},{"bufferView":2,"componentType":5126,"count":144,"type":"VEC3"},{"bufferView":3,"componentType":5126,"count":180,"type":"VEC3","min":[-0.425,-0.3,-0.285],"max":[0.425,0.5,0.32]},{"bufferView":4,"componentType":5126,"count":180,"type":"VEC3"},{"bufferView":5,"componentType":5126,"count":180,"type":"VEC3"},{"bufferView":6,"componentType":5126,"count":72,"type":"VEC3","min":[-0.12,-0.5900000000000001,-0.115],"max":[0.12,0.0,0.135]},{"bufferView":7,"componentType":5126,"count":72,"type":"VEC3"},{"bufferView":8,"componentType":5126,"count":72,"type":"VEC3"},{"bufferView":9,"componentType":5126,"count":3,"type":"SCALAR","min":[0],"max":[0.5]},{"bufferView":10,"componentType":5126,"count":3,"type":"VEC4"}]}
